<svg width="56" height="56" fill="none" xmlns="http://www.w3.org/2000/svg"><g id="facebook-fb-social-icon-01 1" clip-path="url('#clip0_301_154')"><path id="Vector" d="M41.44 0H14.56A14.56 14.56 0 0 0 0 14.56v26.88A14.56 14.56 0 0 0 14.56 56h26.88A14.56 14.56 0 0 0 56 41.44V14.56A14.56 14.56 0 0 0 41.44 0ZM29.12 53.76v-19A1.119 1.119 0 0 0 28 33.6h-5.6v-6.72H28a1.12 1.12 0 0 0 1.12-1.12v-9a5.6 5.6 0 0 1 5.6-5.6h9v6.72H39.2a3.35 3.35 0 0 0-3.36 3.36v4.48A1.12 1.12 0 0 0 37 26.88h6.72v6.72H37a1.12 1.12 0 0 0-1.12 1.12v19l-6.76.04Zm24.64-12.32a12.33 12.33 0 0 1-12.32 12.32h-3.36V35.84h6.72a1.12 1.12 0 0 0 1.12-1.12v-9a1.12 1.12 0 0 0-1.12-1.12h-6.72v-3.32a1.12 1.12 0 0 1 1.12-1.12h5.6A1.119 1.119 0 0 0 45.92 19v-9a1.12 1.12 0 0 0-1.12-1H34.72a7.84 7.84 0 0 0-7.84 7.84v7.84h-5.6a1.12 1.12 0 0 0-1.12 1.12v9a1.12 1.12 0 0 0 1.12 1.12h5.6v17.84H14.56A12.33 12.33 0 0 1 2.24 41.44V14.56A12.33 12.33 0 0 1 14.56 2.24h26.88a12.33 12.33 0 0 1 12.32 12.32v26.88Z" fill="#fff"/></g><defs><clipPath id="clip0_301_154"><path fill="#fff" d="M0 0h56v56H0z"/></clipPath></defs></svg>