<svg width="91" height="92" fill="none" xmlns="http://www.w3.org/2000/svg"><g clip-path="url('#clip0_301_147')" fill="#fff"><path d="M45.19 92c-7.682-.34-15.397-.32-23.034-1.102C10.043 89.659 1.035 80.916.5 68.727c-.68-15.355-.656-30.79.01-46.149C1.038 10.373 10.537.981 22.72.47a555.285 555.285 0 0 1 45.2-.023C80.268.94 89.688 10.09 90.33 22.582c.78 15.113.98 30.347.037 45.442-.9 14.458-10.773 22.81-25.32 23.33-6.607.237-13.232.042-19.847.042 0 .2-.005.4-.01.604Zm38.095-46.26c-.208-.005-.416-.01-.62-.01 0-6.422.176-12.854-.036-19.272-.388-11.48-6.468-17.823-17.925-18.111a760.038 760.038 0 0 0-38.787.009c-10.93.283-17.278 6.571-17.57 17.493a747.708 747.708 0 0 0 .01 39.944c.282 10.373 6.394 16.838 16.382 17.135 13.836.414 27.704.377 41.545 0 9.087-.246 14.848-5.581 15.952-14.7.892-7.435.74-14.992 1.049-22.488Z"/><path d="M45.112 69.344c-13.384-.363-23.455-11.158-23.057-24.71.37-12.692 11.337-22.81 24.341-22.466 12.594.335 22.836 11.303 22.512 24.092-.332 12.957-11.124 23.428-23.796 23.084Zm.24-38.95c-8.49.047-15.18 6.836-15.157 15.383.023 8.454 6.85 15.309 15.282 15.346 8.422.037 15.38-7.05 15.291-15.583-.092-8.482-6.92-15.192-15.416-15.146ZM64.483 21.239c-.019-3.012 2.397-5.522 5.335-5.55 2.98-.027 5.41 2.385 5.452 5.42.041 3.016-2.366 5.525-5.322 5.553-2.966.023-5.447-2.435-5.465-5.423Z"/></g><defs><clipPath id="clip0_301_147"><path fill="#fff" d="M0 0h91v92H0z" viewBox="0 0 91 92"/></clipPath></defs></svg>