<svg width="190" height="190" fill="none" xmlns="http://www.w3.org/2000/svg"><circle cx="95" cy="95" r="95" fill="#1D4ED8"/><g clip-path="url('#clip0_281_7')" fill="#fff"><path d="M96.095 80.286c-2.428-5.756-3.11-11.729-4.48-17.532-.897-3.81.627-7.448 3.937-9.554a2632.196 2632.196 0 0 1 16.847-10.65c3.32-2.077 6.703-2.059 10.019.013 5.567 3.48 11.116 6.99 16.648 10.517 3.563 2.273 4.989 5.835 4.088 9.925-.857 3.892-1.666 7.793-2.526 11.682-1.277 5.784-4.59 10.389-8.599 14.591-.841.882-1.609 1.83-2.517 2.869 1.047 1.852 2.217 4.017 3.494 6.117.322.53.939.945 1.505 1.265a243.733 243.733 0 0 0 6.225 3.362c2.639 1.387 4.097 3.615 4.163 6.503.124 5.282.168 10.574-.063 15.847-.076 1.742-.898 3.556-1.761 5.135-1.046 1.917-2.896 2.962-5.163 3.016-2.206.053-4.416.053-6.623.034-.648-.006-1.05.142-1.413.757-2.7 4.573-6.769 7.011-12.093 6.807-5.526-.213-9.465-3.079-11.767-8.075-.284-.622-.616-.766-1.242-.766-6.864.019-13.724.022-20.588-.003-.645-.003-.958.191-1.23.784-2.27 4.975-6.19 7.803-11.653 8.054-5.374.248-9.443-2.225-12.247-6.789-.228-.37-.81-.665-1.265-.722-.892-.113-1.808-.028-2.716-.034-4.84-.028-9.49-3.544-10.755-8.198-.231-.854-.291-1.777-.3-2.668-.035-3.289-.016-6.579-.013-9.868.003-4.899 2.81-8.462 7.647-9.654a1708.487 1708.487 0 0 1 16.386-3.977c1.379-.326 2.283-1.058 2.906-2.316 1.84-3.716 3.743-7.401 5.618-11.099 1.83-3.603 4.793-5.37 8.842-5.373 3.503-.003 7.01 0 10.69 0Zm28.713 15.696c-1.17 1.07-2.216 2.063-3.304 3.01-2.516 2.197-5.602 2.213-8.144.063-.961-.813-1.941-1.604-2.851-2.47-3.446-3.27-6.854-6.575-10.31-9.836-.294-.277-.81-.446-1.224-.45-4.533-.03-9.07.016-13.603-.037-1.72-.019-2.808.71-3.544 2.203-1.404 2.84-2.865 5.653-4.294 8.481-.151.298-.253.618-.436 1.073h1.423c7.926 0 15.851 0 23.78.003.513 0 1.028 0 1.534.06 1.464.173 2.494 1.312 2.542 2.772.06 1.864-1.249 3.094-3.345 3.094-9.978.007-19.956 0-29.93.01-.465 0-.945.022-1.391.141-1.477.395-2.93.888-4.414 1.259-4.764 1.189-9.547 2.313-14.308 3.518-2.175.549-2.982 1.673-2.982 3.864 0 3.367-.022 6.735.022 10.103.007.596.162 1.258.459 1.767 1.448 2.486 4.018 3.462 6.857 2.69.016-.113.035-.229.044-.346.554-6.851 5.795-12.064 12.517-12.444 6.876-.386 12.636 4.118 13.923 10.957.149.791.531.8 1.122.8 6.348-.006 12.7-.016 19.048.01.775.003 1.05-.214 1.22-1.005 1.12-5.226 4.224-8.807 9.412-10.269 5.128-1.447 9.665-.135 13.389 3.687 2.346 2.408 3.418 5.386 3.655 8.798h4.644c1.767 0 2.093-.251 2.475-1.943.105-.455.228-.923.228-1.387.019-4.661.019-9.319.01-13.98-.004-1.013-.44-1.748-1.41-2.237-2.068-1.046-4.088-2.191-6.137-3.274-1.72-.91-3.048-2.184-3.968-3.901-.856-1.576-1.767-3.117-2.709-4.784Zm12.589-34.754c.051-1.839-.695-2.624-1.72-3.27-5.488-3.456-10.999-6.883-16.43-10.427-1.258-.819-2.279-.84-3.462-.09-5.646 3.571-11.302 7.13-16.942 10.712-1.312.831-1.71 1.908-1.382 3.433.683 3.17 1.413 6.328 2.036 9.51.87 4.448 2.27 8.697 5.533 11.974 3.708 3.729 7.654 7.225 11.511 10.81.762.709 1.416.304 2.055-.286 3.114-2.884 6.244-5.75 9.367-8.625 3.544-3.258 5.881-7.197 6.87-11.911.531-2.524 1.088-5.038 1.635-7.558l.929-4.272Zm-66.688 73.824c4.106.01 7.48-3.321 7.445-7.354-.032-4.02-3.351-7.294-7.398-7.3-4.107-.006-7.474 3.324-7.445 7.366.031 4.021 3.338 7.279 7.398 7.288Zm47.469-.003c4.151.035 7.443-3.186 7.462-7.3.015-4.037-3.254-7.326-7.313-7.351-4.066-.022-7.42 3.204-7.483 7.2-.063 4.08 3.221 7.416 7.334 7.451Z"/><path d="M114.135 70.302c2.952-2.95 5.706-5.69 8.45-8.443.93-.932 2.039-1.186 3.25-.778 1.088.367 1.884 1.199 1.856 2.335-.022.863-.285 1.94-.854 2.533-3.288 3.424-6.673 6.76-10.085 10.066-1.596 1.547-3.553 1.497-5.166-.022a105.796 105.796 0 0 1-3.676-3.65c-1.281-1.335-1.271-3.117-.045-4.294 1.18-1.13 2.953-1.105 4.24.11.683.646 1.293 1.362 2.03 2.143Z"/></g><defs><clipPath id="clip0_281_7"><path fill="#fff" transform="translate(44 41)" d="M0 0h101v100H0z"/></clipPath></defs></svg>