<svg width="190" height="190" fill="none" xmlns="http://www.w3.org/2000/svg"><circle cx="95" cy="95" r="95" fill="#1D4ED8"/><g clip-path="url('#clip0_281_6')" fill="#fff"><path d="M107.472 95.886c-4.256.016-8.512.008-12.768.008h-5.11c-2.443 0-4.882-.008-7.324.002-.808.003-1.336.675-1.178 1.444.12.567.6.884 1.362.884h12.427v-.002h11.36c.42 0 .837.002 1.257-.003.7-.01 1.185-.496 1.183-1.168-.003-.585-.581-1.168-1.209-1.165ZM98.622 106.635h-8.168v.003c-2.709 0-5.418-.003-8.124.003-.612 0-1.098.359-1.23.884-.134.538.1 1.11.613 1.328.261.113.575.147.866.147 4.242.005 8.485-.003 12.725-.005l1.071-.003c.814-.003 1.627.039 2.434-.018.695-.05 1.144-.612 1.094-1.226-.05-.64-.592-1.113-1.28-1.113ZM107.379 101.287c-1.22 0-2.439.018-3.662.016-4.113-.003-8.224-.011-12.337-.011-.18 0-.377.037-.538.116-.515.246-.76.79-.626 1.322.132.523.62.882 1.233.882 2.656.003 5.314.003 7.97.003 2.643 0 5.286.002 7.931 0 .805 0 1.333-.475 1.331-1.179-.006-.692-.513-1.149-1.302-1.149ZM107.445 85.15c-4.206-.003-8.414-.003-12.62-.003-.81 0-1.338.47-1.335 1.173.005.698.528 1.147 1.357 1.147 2.08.002 4.16 0 6.238 0 2.081 0 4.161.002 6.239-.003.213 0 .443-.013.638-.092.539-.217.808-.74.703-1.28-.108-.56-.589-.942-1.22-.942ZM82.317 103.615c.69.008 1.378.002 2.065.002h.984c.328 0 .658.003.985 0 .81-.005 1.365-.472 1.37-1.152.006-.708-.507-1.17-1.328-1.176a427.713 427.713 0 0 0-4.084.003c-.757.005-1.238.462-1.238 1.155.003.677.504 1.157 1.246 1.168ZM105.784 92.873c.547 0 1.096.008 1.643-.002.715-.011 1.225-.475 1.251-1.121.029-.677-.451-1.213-1.185-1.23a66.018 66.018 0 0 0-3.38.007c-.715.018-1.209.54-1.193 1.176.016.658.547 1.154 1.267 1.17.534.008 1.064 0 1.597 0ZM99.219 90.53c-4.206-.003-12.583-.003-16.788-.003-.81 0-1.339.47-1.336 1.173.005.698.528 1.147 1.357 1.147 2.08.003 4.16 0 6.238 0 2.08 0 8.33.003 10.41-.003.214 0 .443-.013.639-.092.538-.217.808-.74.702-1.28-.111-.56-.591-.942-1.222-.942ZM82.317 87.47c.69.008 1.378.002 2.065.002h.984c.328 0 3.689.003 4.019 0 .81-.005 1.364-.472 1.37-1.152.005-.708-.507-1.17-1.328-1.176-1.362-.005-5.756-.005-7.115.003-.758.005-1.238.462-1.238 1.155 0 .677.501 1.157 1.243 1.168Z"/><path d="M121.633 151.738c-2.089-.011-4.18-.014-6.268-.014l-5.657.003h-14.71l-13.769.003c-4.253 0-8.503-.003-12.756-.013-1.68-.006-3.092-.798-4.203-2.362-.895-1.26-1.011-2.696-1.006-3.934.024-5.816.024-9.632.021-14.466v-4.829c0-1.32-.003-2.637-.005-3.957-.003-1.092-.006-2.186-.006-3.278v-7.107l.003-31.374-.003-17.518v-5.571c0-3.477.003-6.955 0-10.43 0-1.647.618-3.051 1.84-4.172 1.009-.924 2.147-1.396 3.377-1.404 4.9-.026 9.36-.042 13.628-.045 3.01-.002 6.02-.005 9.029-.005h11.975l.644-.002c.22-.003.439-.003.658-.003.214 0 .43.003.644.005.335.008.671.021 1.006.037.443.02.9.042 1.349.042.449 0 .9-.019 1.336-.037.422-.018.86-.037 1.293-.037 1.336-.005 2.672-.008 4.005-.008 1.389 0 2.778.003 4.166.006 1.043.002 2.152.008 3.258.044 1.523.05 2.838.704 3.91 1.937.481.554.75 1.223.985 1.813.409 1.019.372 2.047.338 3.042a21.77 21.77 0 0 0-.019.921c.024 2.968.021 5.984.016 8.9-.003 1.152-.003 2.304-.003 3.456l.003 57.04-.003 27.95c0 .918-.277 1.808-.871 2.797-.589.982-1.483 1.725-2.658 2.207-.428.176-.943.357-1.529.357h-.018v.006Zm-54.264-13.07c.003.006-.008.034-.005.1.005 1.013.005 2.029.005 3.042.003 1.488.003 2.976.013 4.464.003.233.072.501.188.713.285.525.779.772 1.552.772 1.817-.003 3.625-.003 5.436-.003l15.935-.002 22.876.002 4.465.003c1.027 0 2.056 0 3.083-.005 1.125-.005 1.695-.575 1.695-1.696v-6.505c0-.407 0-.756-.066-.822-.066-.065-.414-.065-.818-.065l-27.013-.003v-.016l-11.595-.002h-3.586c-2.426.002-4.852.005-7.278.01l-3.828.005c-.264 0-.53-.002-.795-.005h-.177l-.005-.262v.262a.613.613 0 0 0-.082.013Zm.003-80.318c.002.002-.01.036-.008.123.013.52.01 1.044.008 1.554 0 .228-.003.454-.003.682v11.886l-.002 12.308.002 10.613v15.736c0 2.564.003 5.125 0 7.689-.002 1.645-.008 3.291-.013 4.939-.005 1.905-.013 3.811-.013 5.716 0 1.386.002 1.771.008 2.236.005.399.01.853.013 2.047 0 .365.002.703.06.761.056.058.394.058.75.058l12.108.002 11.07-.002h25.558c1.832 0 3.664 0 5.496.002.119 0 .185-.005.206-.018-.003-.003.013-.037.011-.126-.014-2.312-.014-2.428-.014-3.847v-15.437l.003-3.929.003-5.112-.003-14.158.003-8.965c0-2.672-.006-14.038-.006-14.038V58.604c0-.086 0-.191-.005-.254-.063-.006-.164-.006-.237-.006h-27.64v-.002l-26.6-.003-.412.003c-.071 0-.145 0-.216-.003h-.03a.28.28 0 0 0-.097.01Zm7.925-3.968c2.308.005 4.612.008 6.92.01 1.66 0 3.32.003 4.981.003h7.53l.264-.016h15.449c3.95 0 7.899 0 11.849-.003.119 0 .251 0 .317-.008.008-.068.008-.199.008-.328 0-.687-.006-1.37-.008-2.054-.011-1.651-.021-3.36.026-5.04a1.546 1.546 0 0 0-.443-1.154 1.709 1.709 0 0 0-1.194-.512c-.768.01-1.573.016-2.555.016l-1.811-.002c-.605-.003-1.207-.003-1.811-.003H77.338c-2.82 0-5.637-.003-8.456-.01-.766 0-1.526.724-1.537 1.464v.092c-.008.595-.016 1.188-.013 1.784.003.625.008 1.247.013 1.871.01 1.202.022 2.449.016 3.672 0 .165.027.202.03.202 0 0 .03.023.17.023.579-.007 1.141-.01 1.701-.01l6.035.003Z"/><path d="M104.428 41.525c.213 0 .425.003.638.005.787.016 1.574.079 2.358.079h.011c.873 0 1.747-.071 2.621-.074 1.331-.005 2.661-.007 3.995-.007 1.391 0 2.785.002 4.176.005 1.083.002 2.168.008 3.25.044 1.515.05 2.74.72 3.72 1.845.441.507.689 1.113.94 1.74.512 1.276.287 2.58.298 3.869.034 4.117.013 8.235.013 12.355v29.871c0 9.056.003 18.113.003 27.17 0 6.288-.003 9.119-.003 15.405v12.541c0 .974-.34 1.843-.834 2.664-.599.997-1.478 1.667-2.532 2.1-.446.183-.911.336-1.428.336h-.013c-2.089-.011-4.177-.014-6.263-.014l-5.662.003h-14.71c-4.579 0-9.156.003-13.734.003-4.264 0-8.528-.003-12.794-.014-1.716-.005-3.015-.881-3.99-2.251-.807-1.137-.963-2.417-.955-3.782.032-7.584.021-11.712.021-19.294 0-2.412-.008-4.824-.01-7.236-.003-3.309 0-6.621 0-9.93l.003-28.55-.003-17.513c0-5.333.003-10.668 0-16 0-1.586.594-2.914 1.755-3.98.895-.82 1.957-1.327 3.197-1.332 4.541-.024 9.085-.042 13.626-.045 3.007-.003 6.016-.005 9.023-.005h11.981c.433-.003.866-.008 1.302-.008Zm-36.869 13.12h.021c.563-.009 1.123-.011 1.685-.011l1.8.002c3.718.005 7.435.013 11.152.016 1.682 0 3.363.003 5.045.003h7.73v-.016h15.45c3.949 0 7.899 0 11.848-.003.591 0 .591-.002.591-.603 0-2.362-.047-4.724.019-7.08.034-1.192-.974-1.938-1.901-1.938h-.024c-.842.013-1.687.016-2.529.016-1.209 0-2.415-.008-3.625-.008H79.339c-3.485-.003-6.97-.003-10.454-.01h-.003c-.903 0-1.785.826-1.798 1.721-.008.627-.018 1.255-.016 1.882.01 1.847.037 3.692.032 5.54-.005.37.11.488.46.488Zm12.559 80.315h.161l11.07-.003h25.305c1.916 0 3.833 0 5.75.003h.008c.282 0 .477-.024.475-.407-.016-2.9-.013-2.343-.013-5.241v-14.04l.002-9.041-.002-14.158.002-8.965c0-4.68-.005-9.359-.005-14.038V58.604c0-.511-.005-.522-.507-.522H94.989v-.003h-7.548l-19.322-.002-.415.002c-.068 0-.137 0-.205-.002h-.04c-.259 0-.375.105-.367.404.019.743.005 1.485.005 2.228v11.886l-.002 12.308.002 10.613v12.119c0 3.769.006 7.537 0 11.306-.005 3.551-.023 7.101-.026 10.655-.003 2.58.016 1.703.021 4.283.003 1.081 0 1.078 1.077 1.078 3.99 0 7.97.003 11.949.003Zm-11.72 3.443c-.31 0-.622-.002-.936-.005h-.008c-.248 0-.357.102-.357.373.01 2.501.003 5.004.019 7.505.002.281.084.588.219.837.377.696 1.03.908 1.785.908h.005c1.916-.002 3.836-.002 5.752-.002h3.459c3.944 0 7.886-.003 11.83-.003h.325l22.876.003 4.48.002c1.022 0 2.046 0 3.068-.005 1.272-.005 1.959-.703 1.959-1.958v-6.505c0-1.15.002-1.15-1.151-1.15l-11.342-.002H94.976v-.016h-3.91c-2.624 0-5.25-.003-7.878-.003h-3.656c-3.69.003-7.379.011-11.07.016a.26.26 0 0 1-.063.005ZM104.429 41c-.22 0-.439.003-.658.003-.216.002-.43.002-.647.002h-11.98c-3.007 0-6.017 0-9.024.005-4.271.003-8.73.019-13.628.045-1.299.008-2.495.501-3.553 1.472-1.28 1.173-1.928 2.64-1.928 4.365.003 3.477.003 6.952 0 10.429v13.738l.003 9.348v38.481c0 1.097.003 2.194.005 3.291.003 1.315.006 2.63.006 3.945v4.839c.002 4.829.002 8.645-.021 14.452-.006 1.281.116 2.769 1.053 4.087 1.162 1.635 2.648 2.466 4.417 2.472 3.714.01 7.659.013 12.793.013 2.3 0 4.6 0 6.899-.003l6.835-.002H115.373c1.714 0 3.971.002 6.26.013h.016c.633 0 1.18-.189 1.631-.376 1.228-.506 2.165-1.285 2.783-2.317.62-1.031.908-1.965.908-2.934V61.379c0-1.148.003-2.294.003-3.441.005-2.924.007-5.945-.016-8.918-.003-.3.008-.596.018-.91.037-1.021.074-2.08-.356-3.15-.246-.609-.523-1.302-1.032-1.887-1.117-1.286-2.498-1.968-4.095-2.02a106.66 106.66 0 0 0-3.266-.045 2156.06 2156.06 0 0 0-4.179-.005c-1.331 0-2.664.002-3.994.008-.439.002-.88.02-1.305.036a31.32 31.32 0 0 1-1.314.037c-.452 0-.906-.021-1.347-.042a31.319 31.319 0 0 0-1.66-.042ZM67.623 54.12c.005-1.213-.006-2.444-.016-3.636-.005-.624-.01-1.246-.013-1.87-.003-.6.005-1.21.013-1.804v-.068c.008-.596.65-1.204 1.27-1.204 2.814.007 5.673.007 8.44.01h37.504l1.809.003c.604.002 1.212.002 1.816.002.985 0 1.79-.005 2.537-.015h.019c.364 0 .739.16 1.003.43.177.181.383.493.37.966-.048 1.684-.037 3.398-.027 5.052.005.682.008 1.362.008 2.044v.079h-.063l-11.849.002H94.469v.016h-7.202c-1.681 0-3.363 0-5.045-.003-2.307-.002-4.612-.005-6.92-.01l-4.231-.008-.718-.003-1.083-.002c-.644.008-1.167.01-1.647.018Zm.09 4.484c.07 0 .142 0 .213-.002l.2-.003H94.47l.526.003h27.351a6082.26 6082.26 0 0 0 0 10.463l.002 6.22.003 7.818c0 1.532 0 3.068-.003 4.6l-.002 4.364c0 2.386 0 4.774.002 7.16l.003 6.999c0 1.724 0 3.448-.003 5.172l.003 3.871c0 4.68-.003 9.362 0 14.041v1.385c0 1.402 0 1.538.01 3.74-1.906-.002-3.804-.002-5.705-.002H91.349c-1.774 0-3.546 0-5.32.002-1.917 0-3.833.003-5.753.003h-.16c-2.303 0-4.605 0-6.907-.003h-5.035c-.203 0-.411 0-.536-.01-.01-.126-.01-.336-.013-.538a164.113 164.113 0 0 0-.013-2.055c-.005-.454-.01-.848-.008-2.234 0-1.9.008-3.797.013-5.697.006-1.653.011-3.304.014-4.957.002-2.572.002-5.147 0-7.719V95.516c0-1.633 0-3.265-.003-4.897 0-1.906-.003-3.81-.003-5.719V60.706c0-.225.003-.451.003-.677.003-.467.005-.947-.005-1.427.034.002.06.002.09.002Zm.686 80.324h.069l3.894-.008c2.391-.005 4.783-.008 7.175-.01H94.448l.528.015H121.725c.235 0 .475 0 .607.014.014.131.014.372.014.606v6.508c0 .974-.455 1.428-1.431 1.433-1.022.003-2.044.005-3.065.005h-11.904l-15.453-.002h-.324c-2.545 0-5.09 0-7.638.002h-7.654c-1.916 0-3.835 0-5.755.003-.689 0-1.085-.189-1.325-.633a1.318 1.318 0 0 1-.156-.59c-.01-1.483-.013-2.992-.013-4.454 0-.965-.003-1.928-.005-2.894.261.002.517.005.776.005Z"/><path d="M96.523 145.203c-.575 0-1.151-.003-1.727-.003-.514-.002-1.618-.002-1.618-.002l-2.162.005c-.91 0-1.732-.562-1.956-1.338-.275-.956.063-1.872.863-2.339a2.37 2.37 0 0 1 1.114-.294c.533-.01 1.096-.015 1.824-.015l2.511.005h1.938c.541 0 1.08 0 1.62-.003.888 0 1.693.517 1.965 1.257.327.89.034 1.837-.726 2.357a2.11 2.11 0 0 1-1.111.354c-.845.011-1.69.016-2.535.016Z"/><path d="M92.861 141.476c.697 0 1.397.006 2.094.006h2.326c.549 0 1.1 0 1.65-.003h.005c.766 0 1.476.446 1.711 1.086.274.748.05 1.586-.626 2.05-.27.184-.639.305-.963.31-.845.01-1.693.016-2.538.016-1.087 0-2.175-.006-3.265-.006h-.085c-.715 0-1.433.003-2.149.006h-.002c-.787 0-1.51-.489-1.7-1.147-.236-.819.028-1.622.741-2.039.283-.166.652-.252.985-.258a61.114 61.114 0 0 1 1.816-.021Zm0-.525c-.73 0-1.293.006-1.83.016a2.665 2.665 0 0 0-1.24.331c-.906.527-1.291 1.561-.982 2.635.253.884 1.183 1.527 2.207 1.527.317 0 .631 0 .945-.002.404 0 .805-.003 1.21-.003h.084l1.56.003c.568.002 1.138.002 1.706.002.992 0 1.8-.005 2.544-.016a2.353 2.353 0 0 0 1.257-.401c.861-.591 1.191-1.661.824-2.664-.309-.842-1.217-1.43-2.207-1.43-.557.002-1.106.002-1.655.002H94.958c-.349 0-.697 0-1.046-.002-.351.002-.7.002-1.05.002ZM88.569 51.812a2.02 2.02 0 0 1-1.481-.611c-.38-.399-.57-.94-.539-1.525.048-.879.805-1.826 1.946-1.826.071 0 .142.002.216.01.172.019.362.026.578.026.222 0 .447-.008.671-.018.227-.008.457-.018.684-.018 1.745-.003 3.493-.003 5.238-.003h3.97c.27 0 .539-.003.811-.005.277-.003.554-.005.834-.005h.092c.565.002 1.117.312 1.481.826.381.54.484 1.202.278 1.764-.336.918-1.001 1.383-1.972 1.383l-12.807.002Z"/><path d="M101.492 48.099h.095c1.045.003 1.877 1.239 1.51 2.239-.296.808-.866 1.21-1.724 1.21H88.569c-1.046 0-1.814-.801-1.756-1.861.042-.756.692-1.578 1.684-1.578.061 0 .124.003.19.01.201.022.402.03.605.03.449 0 .903-.034 1.354-.034 3.07-.003 6.141-.003 9.209-.003.544-.003 1.09-.013 1.637-.013Zm0-.525c-.28 0-.557.003-.837.005-.267.003-.536.005-.803.005H95.89c-1.747 0-3.498 0-5.245.003-.235 0-.468.01-.695.018-.227.008-.443.019-.66.019-.206 0-.388-.008-.551-.024a2.547 2.547 0 0 0-.243-.013c-1.297 0-2.157 1.076-2.21 2.073-.037.66.182 1.27.61 1.722.425.446 1.019.693 1.674.693h12.804c1.08 0 1.848-.538 2.22-1.556.235-.643.119-1.394-.309-2.005-.412-.588-1.045-.94-1.697-.94h-.095ZM82.354 124.875c-.076 0-.153-.006-.224-.011a43.824 43.824 0 0 0-.626-.044h-2.896a5.092 5.092 0 0 1-.705.013c-2.07-.137-3.67-1.816-3.72-3.905a15.677 15.677 0 0 1-.003-.609v-9.178c0-9.754 0-18.832-.007-29.162 0-1.37.451-2.477 1.38-3.388 1.46-1.43 2.93-2.897 4.354-4.317l1.423-1.42c.818-.813 1.832-1.225 3.015-1.225 2.172.005 4.33.008 6.484.008l15.14-.003c1.83 0 3.657 0 5.486.003 2.017.002 3.543 1.215 3.984 3.165.066.291.074.582.074.855.005 3.021.008 6.244-.003 9.48-.002.23-.06.44-.113.611l.003.21c.052.173.108.365.11.58.011 1.514.011 3.044.011 4.527v4.648c0 8.581.003 15.911-.008 24.881 0 .189-.04.391-.113.591l-.006.588-.005.021c-.29 1.585-1.98 3.028-3.548 3.028-6.579 0-13.266.016-19.735.029l-7.41.016c-.108 0-.217-.005-.333-.013l-.44-.032h-1.165a1.493 1.493 0 0 1-.404.053Zm28.779-3.407c.848 0 .977-.12.988-.913V90.726l-.016-.207c-.029-.415-.061-.837.016-1.275V75.946c0-.79-.151-.94-.94-.94H85.527v.03c0 .448-.002.9-.005 1.348-.005 1.005-.01 2.045.01 3.076a2.837 2.837 0 0 1-.834 2.081 2.791 2.791 0 0 1-1.969.782c-.032 0-.066 0-.098-.002a52.622 52.622 0 0 0-1.83-.027c-.385 0-.767.003-1.145.006-.378.002-.76.005-1.146.005-.296 0-.589 0-.882-.005.014 3.456.014 7.064.014 10.25l-.003 28.039c0 .102-.003.197 0 .289.013.336.211.556.53.582l32.555-.002v.008h.409v.002Z"/><path d="M84.342 71.891h.019c2.156.006 4.31.008 6.468.008h3.957l8.282-.002h2.904c1.827 0 3.654 0 5.481.002 1.885.003 3.313 1.137 3.727 2.96.059.266.069.541.069.798.005 3.018.008 6.236-.003 9.48 0 .207-.06.398-.113.569v.003l.003.286c.052.17.108.349.11.543.011 1.509.011 3.042.011 4.524v4.648c0 8.582.003 15.912-.008 24.882 0 .17-.039.359-.113.54l-.006.614c-.269 1.473-1.837 2.814-3.289 2.814-6.608 0-13.325.015-19.822.029l-7.326.015c-.103 0-.206-.005-.32-.01l-.437-.032H82.71a1.03 1.03 0 0 1-.357.053c-.071 0-.14-.005-.206-.011-.208-.015-.417-.031-.628-.044h-2.915a5.376 5.376 0 0 1-.689.01c-1.932-.128-3.426-1.695-3.474-3.648-.005-.202-.003-.401-.003-.601v-8.613c0-9.972 0-19.2-.008-29.729 0-1.296.425-2.343 1.302-3.201a676.902 676.902 0 0 0 4.372-4.336l1.407-1.404c.779-.771 1.713-1.147 2.83-1.147Zm16.844 2.853H85.263v.291c0 .45-.002.9-.005 1.35-.005 1.01-.01 2.054.01 3.08a2.585 2.585 0 0 1-.754 1.89c-.47.46-1.101.708-1.785.708-.029 0-.06 0-.09-.002a53.67 53.67 0 0 0-1.84-.027c-.385 0-.768.003-1.146.006-.377.002-.76.005-1.145.005-.296 0-.594 0-.89-.005h-.032c-.16 0-.192.026-.195.029 0 0-.032.036-.032.233.013 3.417.013 6.892.013 10.251l-.002 28.039c0 .099-.003.199 0 .299.018.467.322.795.77.834h32.315v.008h.676c.995 0 1.24-.231 1.251-1.173V90.729l-.016-.233c-.029-.4-.058-.814.016-1.226V75.95c0-.931-.272-1.202-1.204-1.202l-9.992-.005Zm-16.844-3.377c-1.257 0-2.334.438-3.202 1.304l-1.407 1.404-.022.02c-1.422 1.418-2.89 2.885-4.348 4.313-.982.96-1.46 2.13-1.457 3.574.008 10.337.008 19.494.008 29.186V120.324c0 .189-.003.404.003.617.052 2.225 1.758 4.015 3.968 4.159.092.006.184.011.285.011.142 0 .293-.005.46-.019h2.874l.605.042c.076.006.155.011.245.011.161 0 .304-.018.436-.053h1.124l.418.032c.132.008.242.013.359.013l7.326-.016h.071c6.473-.013 13.166-.026 19.748-.029 1.713 0 3.492-1.516 3.809-3.243l.008-.045v-.044l.003-.523a1.95 1.95 0 0 0 .113-.637c.011-9.049.011-16.387.008-24.882v-4.647c0-1.48.003-3.013-.01-4.528a2.174 2.174 0 0 0-.111-.62v-.13c.05-.168.113-.394.113-.646.011-3.238.008-6.461.003-9.484 0-.287-.011-.596-.079-.911-.47-2.076-2.097-3.367-4.243-3.372-1.827-.003-3.654-.003-5.481-.003h-2.904l-8.281.003h-3.958c-2.154 0-4.311-.003-6.465-.008l-.019-.005Zm16.844 3.902h9.995c.644 0 .676.031.676.677V89.223c-.077.462-.045.913-.016 1.31l.016.212V120.558c-.008.635-.008.648-.724.648h-.148l-.528-.008H78.172c-.174-.021-.264-.134-.272-.331a4.502 4.502 0 0 1 0-.265v-.013l.003-28.039c0-3.104.003-6.613-.01-9.985a160.65 160.65 0 0 0 1.766-.003c.377-.003.76-.005 1.143-.005.715 0 1.293.008 1.821.026.037 0 .074.003.109.003.823 0 1.589-.305 2.157-.858.596-.586.929-1.412.913-2.273a118.718 118.718 0 0 1-.01-3.068c.002-.373.002-.745.002-1.118h15.392Z"/></g><defs><clipPath id="clip0_281_6"><path fill="#fff" transform="translate(63 41)" d="M0 0h64v111H0z"/></clipPath></defs></svg>