<svg xmlns="http://www.w3.org/2000/svg" width="190" height="190" fill="none"><path d="M190 95c0 52.467-42.533 95-95 95S0 147.467 0 95 42.533 0 95 0s95 42.533 95 95Z" fill="#1D4ED8"/><path d="M35 60.998c.174-.52.34-1.04.524-1.557 1.398-3.975 4.893-6.387 9.413-6.419 4.726-.035 9.452-.01 14.177-.01 21.737 0 43.474.014 65.212-.012 3.592-.003 6.54 1.18 8.649 4.195 1.222 1.745 1.717 3.727 1.717 5.848.003 5.533.019 11.065-.019 16.6-.006.884.193 1.298 1.099 1.595 7.841 2.556 13.091 9.88 13.122 18.198.007 1.264 0 2.527 0 3.892h7.027c.028.482.066.862.066 1.245.004 8.039.016 16.079 0 24.122-.028 13.355-10.041 24.643-23.17 26.142-13.855 1.583-26.674-8.311-28.732-22.278-.357-2.425-.297-4.91-.439-7.549H45.654c-5.748 0-8.788-2.258-10.506-7.797-.034-.108-.1-.211-.154-.313C35 98.265 35 79.63 35 60.998Zm57.01 49.652v-7.315h18.877c0-1.484-.012-2.827.004-4.173.101-9.058 6.723-16.983 15.553-18.556.852-.153 1.06-.5 1.057-1.327-.035-5.254-.016-10.506-.019-15.76 0-2.572-.682-3.258-3.207-3.258H45.487c-2.665 0-3.372.709-3.372 3.382v50.747c0 2.622.767 3.394 3.39 3.394h58.214v-7.134H92.01Zm56.818.08h-37.792c-.048.198-.098.31-.095.424.035 6.41-.17 12.829.171 19.223.593 11.102 11.73 19.368 22.51 16.992 9.06-1.998 15.181-9.568 15.26-18.951.044-5.532.009-11.068.006-16.603 0-.351-.038-.699-.06-1.085Zm-7.226-7.449c0-1.921.145-3.752-.025-5.552-.593-6.25-7.188-11.198-13.29-10.126-7.188 1.26-11.323 7.306-10.035 15.681 7.759-.003 15.534-.003 23.35-.003Z" fill="#fff"/><path d="M60.43 96.16c-1.77 0-3.55.124-5.31-.026-3.348-.284-5.852-3.07-5.905-6.47a261.509 261.509 0 0 1 0-8.477c.056-3.688 2.932-6.54 6.581-6.563 3.072-.019 6.143-.012 9.215-.003 3.558.01 6.354 2.199 6.654 5.772.287 3.43.227 6.923-.066 10.356-.259 3.011-2.73 5.152-5.739 5.388-1.8.144-3.618.026-5.426.026-.003 0-.003-.003-.003-.003Zm4.107-7.233v-7.054H56.47v7.054h8.068ZM49.268 110.551v-7.089c.275-.041.537-.111.799-.111 4.129-.007 8.258.013 12.387-.023.818-.006 1.105.23 1.083 1.079-.05 2.016-.016 4.039-.016 6.144H49.268ZM70.636 110.542v-7.134h14.136v7.134H70.636ZM118.17 127.47c1.518-1.538 3.154-3.19 4.789-4.849l4.561 4.686c3.255-2.951 6.339-5.749 9.499-8.617l4.782 5.363L127.577 137c-3.21-3.251-6.342-6.422-9.407-9.53Z" fill="#fff"/></svg>