<svg xmlns="http://www.w3.org/2000/svg" width="1280" height="130"><path d="M253 1.011C160.207 6.283 81.166 18.936 18.5 38.552c-8.25 2.582-15.788 4.917-16.75 5.188C.118 44.2 0 47.13 0 87.117v42.885l640.25-.251 640.25-.251.241-43.5c.132-23.925-.093-43.027-.5-42.449-1.97 2.796-39.839 13.883-71.241 20.857-51.617 11.465-97.903 17.955-162.5 22.784-23.127 1.73-120.578 1.736-146.5.01-93.365-6.217-166.458-18.371-268.5-44.647-86.714-22.329-163.73-34.605-255-40.646C355.949.548 271.902-.062 253 1.011" fill="#1d4ed8" fill-rule="evenodd"/></svg>