<svg width="25" height="25" fill="none" xmlns="http://www.w3.org/2000/svg"><path fill-rule="evenodd" clip-rule="evenodd" d="M12.5 23.438c6.04 0 10.938-4.897 10.938-10.938 0-6.04-4.897-10.938-10.938-10.938C6.46 1.563 1.562 6.46 1.562 12.5c0 1.962.517 3.803 1.421 5.395l-1.42 5.543 5.714-1.326a10.888 10.888 0 0 0 5.223 1.326Zm0-1.683A9.255 9.255 0 1 0 3.245 12.5c0 1.973.618 3.803 1.67 5.305l-.828 3.108 3.163-.79a9.212 9.212 0 0 0 5.25 1.632Z" fill="#fff"/><path d="M9.766 7.422c-.26-.522-.66-.476-1.062-.476-.72 0-1.844.863-1.844 2.468 0 1.316.58 2.756 2.534 4.911 1.886 2.08 4.363 3.155 6.42 3.119 2.057-.037 2.48-1.807 2.48-2.405 0-.264-.164-.397-.277-.433-.701-.336-1.994-.963-2.288-1.08-.294-.118-.448.04-.543.128-.267.254-.796 1.003-.977 1.171-.181.169-.451.084-.563.02-.414-.166-1.534-.664-2.428-1.53-1.104-1.071-1.17-1.44-1.377-1.768-.167-.262-.045-.423.016-.494.238-.274.567-.698.714-.909.148-.21.03-.53-.04-.73-.302-.857-.557-1.574-.765-1.992Z" fill="#fff" viewBox="0 0 25 25"/></svg>